<?xml version="1.0" encoding="utf-8"?>
<!-- Generator: Adobe Illustrator 24.0.0, SVG Export Plug-In . SVG Version: 6.00 Build 0)  -->
<svg version="1.1" id="Capa_1" xmlns="http://www.w3.org/2000/svg" xmlns:xlink="http://www.w3.org/1999/xlink" x="0px" y="0px"
	 viewBox="0 0 218 62" style="enable-background:new 0 0 218 62;" xml:space="preserve">
<style type="text/css">
	.st0{fill:#231916;}
	.st1{fill-rule:evenodd;clip-rule:evenodd;fill:#231916;}
	.st2{fill:#B4B5B5;}
	.st3{fill:#888888;}
	.st4{fill:#E50013;}
	.st5{fill-rule:evenodd;clip-rule:evenodd;fill:#E50013;}
	.st6{fill:#FFFFFF;}
	.st7{fill-rule:evenodd;clip-rule:evenodd;}
	.st8{fill-rule:evenodd;clip-rule:evenodd;fill:#FFFFFF;}
</style>
<g>
	<polyline class="st2" points="183.98,41.09 188.82,41.09 196.12,47.98 188.82,54.9 183.97,54.9 191.28,47.98 183.98,41.09 	"/>
	<polyline class="st3" points="193.91,41.09 198.76,41.09 206.06,47.98 198.75,54.9 193.9,54.9 201.21,47.98 193.91,41.09 	"/>
	<polyline class="st0" points="203.85,41.09 208.7,41.09 216,47.98 208.69,54.9 203.84,54.9 211.15,47.98 203.85,41.09 	"/>
	<polyline class="st0" points="2.65,41.16 5.75,41.16 5.75,52.29 11.22,52.29 11.22,54.9 2.65,54.9 2.65,41.16 	"/>
	<path class="st0" d="M15.39,50.88c0.1,1.3,1.37,1.92,2.81,1.92c1.06,0,1.92-0.14,2.75-0.43l0.41,2.1
		c-1.02,0.43-2.26,0.63-3.61,0.63c-3.38,0-5.32-1.96-5.32-5.1c0-2.53,1.59-5.32,5.04-5.32c3.22,0,4.44,2.51,4.44,4.97
		c0,0.53-0.06,1-0.1,1.24L15.39,50.88 M19.04,48.76c0-0.73-0.33-2.02-1.73-2.02c-1.32,0-1.86,1.2-1.94,2.02H19.04z"/>
	<path class="st0" d="M32.07,52.49c0,0.94,0.04,1.86,0.16,2.41h-2.79l-0.18-1h-0.06c-0.65,0.8-1.67,1.22-2.85,1.22
		c-2.02,0-3.22-1.47-3.22-3.06c0-2.59,2.32-3.81,5.85-3.81v-0.12c0-0.53-0.29-1.28-1.81-1.28c-1.02,0-2.1,0.35-2.75,0.73l-0.57-1.98
		c0.69-0.39,2.06-0.9,3.87-0.9c3.32,0,4.36,1.96,4.36,4.3V52.49 M29.07,50.19c-1.63,0-2.89,0.39-2.89,1.57
		c0,0.8,0.53,1.18,1.22,1.18c0.75,0,1.41-0.51,1.61-1.14c0.04-0.16,0.06-0.34,0.06-0.53V50.19z"/>
	<path class="st0" d="M44.2,40.42v11.5c0,1.14,0.04,2.3,0.08,2.98h-2.75l-0.12-1.45h-0.06c-0.61,1.1-1.83,1.67-3.12,1.67
		c-2.37,0-4.26-2.02-4.26-5.12c-0.02-3.34,2.08-5.3,4.47-5.3c1.24,0,2.18,0.45,2.63,1.12h0.04v-5.4H44.2 M41.1,49.17
		c0-0.18,0-0.39-0.04-0.57c-0.18-0.83-0.86-1.51-1.81-1.51c-1.43,0-2.14,1.26-2.14,2.83c0,1.67,0.83,2.73,2.12,2.73
		c0.9,0,1.63-0.61,1.81-1.49c0.04-0.2,0.06-0.45,0.06-0.69V49.17z"/>
	<path class="st0" d="M48.21,43.63c-1.04,0-1.71-0.73-1.71-1.65c0-0.94,0.69-1.65,1.75-1.65c1.06,0,1.71,0.71,1.73,1.65
		c0,0.92-0.67,1.65-1.75,1.65H48.21 M49.78,54.9h-3.1v-9.97h3.1V54.9z"/>
	<path class="st0" d="M52.27,48.11c0-1.24-0.04-2.28-0.08-3.18h2.69l0.14,1.39h0.06c0.41-0.65,1.41-1.61,3.08-1.61
		c2.04,0,3.57,1.37,3.57,4.3v5.89h-3.1v-5.52c0-1.28-0.45-2.16-1.57-2.16c-0.86,0-1.37,0.59-1.59,1.16c-0.08,0.2-0.1,0.49-0.1,0.77
		v5.75h-3.1V48.11"/>
	<path class="st0" d="M73.65,53.45c0,1.92-0.39,3.49-1.53,4.49c-1.08,0.94-2.57,1.22-4.04,1.22c-1.32,0-2.69-0.26-3.59-0.75
		l0.61-2.37c0.63,0.37,1.71,0.76,2.89,0.76c1.47,0,2.59-0.77,2.59-2.63v-0.63h-0.04c-0.59,0.81-1.55,1.28-2.69,1.28
		c-2.47,0-4.22-2-4.22-4.85c0-3.22,2.06-5.26,4.53-5.26c1.37,0,2.22,0.59,2.73,1.41h0.04l0.1-1.18h2.69
		c-0.04,0.65-0.08,1.49-0.08,2.98V53.45 M70.55,48.99c0-0.18-0.02-0.39-0.06-0.57c-0.23-0.82-0.82-1.37-1.67-1.37
		c-1.14,0-2.04,1.02-2.04,2.84c0,1.49,0.73,2.65,2.02,2.65c0.82,0,1.45-0.53,1.65-1.24c0.08-0.25,0.1-0.57,0.1-0.84V48.99z"/>
	<rect x="80.51" y="41.16" class="st0" width="3.1" height="13.74"/>
	<path class="st0" d="M86.19,48.11c0-1.24-0.04-2.28-0.08-3.18h2.69l0.14,1.39h0.06c0.41-0.65,1.41-1.61,3.08-1.61
		c2.04,0,3.57,1.37,3.57,4.3v5.89h-3.1v-5.52c0-1.28-0.45-2.16-1.57-2.16c-0.86,0-1.36,0.59-1.59,1.16c-0.08,0.2-0.1,0.49-0.1,0.77
		v5.75h-3.1V48.11"/>
	<path class="st0" d="M98.14,48.11c0-1.24-0.04-2.28-0.08-3.18h2.69l0.14,1.39h0.06c0.41-0.65,1.41-1.61,3.08-1.61
		c2.04,0,3.57,1.37,3.57,4.3v5.89h-3.1v-5.52c0-1.28-0.45-2.16-1.57-2.16c-0.86,0-1.37,0.59-1.59,1.16c-0.08,0.2-0.1,0.49-0.1,0.77
		v5.75h-3.1V48.11"/>
	<path class="st0" d="M114.67,55.12c-2.91,0-5.16-1.92-5.16-5.14c0-3.22,2.12-5.28,5.34-5.28c3.04,0,5.08,2.1,5.08,5.12
		c0,3.63-2.59,5.3-5.24,5.3H114.67 M114.73,52.9c1.22,0,1.98-1.2,1.98-3c0-1.47-0.57-2.98-1.98-2.98c-1.47,0-2.04,1.51-2.04,3
		c0,1.69,0.71,2.98,2.02,2.98H114.73z"/>
	<path class="st0" d="M124.15,44.93l1.34,4.63c0.25,0.84,0.41,1.63,0.57,2.43h0.06c0.16-0.82,0.32-1.57,0.55-2.43l1.29-4.63h3.26
		l-3.71,9.97h-3.1l-3.63-9.97H124.15"/>
	<path class="st0" d="M140.95,52.49c0,0.94,0.04,1.86,0.16,2.41h-2.79l-0.18-1h-0.06c-0.65,0.8-1.67,1.22-2.85,1.22
		c-2.02,0-3.22-1.47-3.22-3.06c0-2.59,2.32-3.81,5.85-3.81v-0.12c0-0.53-0.29-1.28-1.81-1.28c-1.02,0-2.1,0.35-2.75,0.73l-0.57-1.98
		c0.69-0.39,2.06-0.9,3.87-0.9c3.32,0,4.36,1.96,4.36,4.3V52.49 M137.95,50.19c-1.63,0-2.89,0.39-2.89,1.57
		c0,0.8,0.53,1.18,1.22,1.18c0.75,0,1.4-0.51,1.61-1.14c0.04-0.16,0.06-0.34,0.06-0.53V50.19z"/>
	<path class="st0" d="M146.88,42.22v2.71h2.22v2.28h-2.22v3.63c0,1.2,0.31,1.75,1.22,1.75c0.43,0,0.63-0.02,0.92-0.08l0.02,2.34
		c-0.39,0.14-1.14,0.27-2,0.27c-1,0-1.83-0.35-2.34-0.86c-0.57-0.59-0.86-1.55-0.86-2.96v-4.1h-1.32v-2.28h1.32v-1.88L146.88,42.22"
		/>
	<path class="st0" d="M152.42,43.63c-1.04,0-1.71-0.73-1.71-1.65c0-0.94,0.69-1.65,1.75-1.65c1.06,0,1.71,0.71,1.73,1.65
		c0,0.92-0.67,1.65-1.75,1.65H152.42 M153.99,54.9h-3.1v-9.97h3.1V54.9z"/>
	<path class="st0" d="M161.07,55.12c-2.91,0-5.16-1.92-5.16-5.14c0-3.22,2.12-5.28,5.34-5.28c3.04,0,5.08,2.1,5.08,5.12
		c0,3.63-2.59,5.3-5.24,5.3H161.07 M161.13,52.9c1.22,0,1.98-1.2,1.98-3c0-1.47-0.57-2.98-1.98-2.98c-1.47,0-2.04,1.51-2.04,3
		c0,1.69,0.71,2.98,2.02,2.98H161.13z"/>
	<path class="st0" d="M167.95,48.11c0-1.24-0.04-2.28-0.08-3.18h2.69l0.14,1.39h0.06c0.41-0.65,1.41-1.61,3.08-1.61
		c2.04,0,3.57,1.37,3.57,4.3v5.89h-3.1v-5.52c0-1.28-0.45-2.16-1.57-2.16c-0.86,0-1.37,0.59-1.59,1.16c-0.08,0.2-0.1,0.49-0.1,0.77
		v5.75h-3.1V48.11"/>
	<path class="st4" d="M169.83,29.1h7.58l-7.82-25.8h-10.76l-7.82,25.8h7.58l1.38-4.77h8.48L169.83,29.1 M161.61,18.59l2.58-8.91
		h0.04l2.58,8.91H161.61z"/>
	<path class="st4" d="M39.82,29.57c7.78,0,11.54-1.37,12.07-8.39c0.13-1.67,0.15-3.39,0.15-4.97c0-1.59-0.03-3.3-0.15-4.97
		c-0.53-7.02-4.29-8.39-12.07-8.39c-7.78,0-11.54,1.37-12.07,8.39c-0.13,1.67-0.15,3.39-0.15,4.97c0,1.59,0.03,3.3,0.15,4.97
		C28.29,28.2,32.04,29.57,39.82,29.57 M34.93,16.2c0-1.42,0.04-2.26,0.07-2.88c0.2-3.98,1.77-4.45,4.83-4.45
		c3.06,0,4.63,0.47,4.83,4.45c0.03,0.62,0.07,1.46,0.07,2.88c0,1.42-0.03,2.26-0.07,2.88c-0.2,3.98-1.77,4.45-4.83,4.45
		c-3.06,0-4.63-0.47-4.83-4.45C34.97,18.46,34.93,17.62,34.93,16.2z"/>
	<polyline class="st5" points="2,3.31 2,9.74 9.71,9.74 9.71,29.1 17.43,29.1 17.43,9.74 25.14,9.74 25.14,3.31 2,3.31 	"/>
	<rect x="113.05" y="3.31" class="st4" width="7.32" height="25.8"/>
	<polyline class="st5" points="90.91,12.72 90.91,3.31 83.64,3.31 83.64,29.1 90.91,29.1 90.91,19.16 99.37,19.16 99.37,29.1 
		106.65,29.1 106.65,3.31 99.37,3.31 99.37,12.72 90.91,12.72 	"/>
	<path class="st4" d="M144.45,15.62c3.24-0.83,4.19-2.77,4.19-5.57c0-5.67-3.57-6.75-8.64-6.75h-13.15v25.8h13.8
		c6.35,0,8.49-2.73,8.49-6.94C149.15,19.23,148.47,16.64,144.45,15.62 M134.14,18.51h5.05c2.04,0,2.47,0.89,2.47,2.35
		c0,1.45-0.8,2.35-2.47,2.35h-5.05V18.51z M134.14,9.21h5.05c1.32,0,2.14,0.63,2.14,2.13c0,1.29-0.81,2.08-2.14,2.08h-5.05V9.21z"/>
	<path class="st4" d="M56.29,20.64h6.94c0.01,1.25,0.17,2.09,0.77,2.55c0.69,0.52,1.31,0.69,3.36,0.69c1.97,0,4.13,0,4.13-2.43
		c0-1.92-1.21-2.36-3.44-2.47c-5.53-0.29-7.53-0.45-9.59-1.98c-1.4-1.04-2.13-3.07-2.13-5.82c0-4.67,1.63-6.31,3.98-7.45
		c2.43-1.18,11.95-1.18,14.51,0c3.22,1.48,3.31,4.7,3.31,7.68h-6.92c-0.01-1.52-0.36-1.94-0.64-2.23c-0.72-0.64-1.74-0.77-3.22-0.77
		c-1.79,0-3.86,0.08-3.86,2.25c0,1.66,0.72,2.35,2.6,2.47c2.58,0.17,7.68,0.33,9.49,1.4c2.55,1.51,3.2,3.54,3.2,6.87
		c0,4.8-1.72,6.22-4.11,7.27c-2.76,1.22-11.98,1.22-14.98-0.09C56.36,27.11,56.29,24.19,56.29,20.64"/>
</g>
</svg>
