<?xml version="1.0" encoding="utf-8"?>
<!-- Generator: Adobe Illustrator 24.0.0, SVG Export Plug-In . SVG Version: 6.00 Build 0)  -->
<svg version="1.1" id="Capa_1" xmlns="http://www.w3.org/2000/svg" xmlns:xlink="http://www.w3.org/1999/xlink" x="0px" y="0px"
	 viewBox="0 0 124 34" style="enable-background:new 0 0 124 34;" xml:space="preserve">
<style type="text/css">
	.st0{fill:#231916;}
	.st1{fill-rule:evenodd;clip-rule:evenodd;fill:#231916;}
	.st2{fill:#B4B5B5;}
	.st3{fill:#888888;}
	.st4{fill:#E50013;}
	.st5{fill-rule:evenodd;clip-rule:evenodd;fill:#E50013;}
	.st6{fill:#FFFFFF;}
	.st7{fill-rule:evenodd;clip-rule:evenodd;}
	.st8{fill-rule:evenodd;clip-rule:evenodd;fill:#FFFFFF;}
</style>
<g>
	<polyline class="st0" points="104.74,22.75 107.51,22.75 111.67,26.68 107.5,30.62 104.74,30.62 108.91,26.68 104.74,22.75 	"/>
	<polyline class="st0" points="110.41,22.75 113.17,22.75 117.33,26.68 113.17,30.62 110.4,30.62 114.57,26.68 110.41,22.75 	"/>
	<polyline class="st0" points="116.07,22.75 118.84,22.75 123,26.68 118.83,30.62 116.07,30.62 120.24,26.68 116.07,22.75 	"/>
	<polyline class="st0" points="1.37,22.79 3.14,22.79 3.14,29.14 6.25,29.14 6.25,30.62 1.37,30.62 1.37,22.79 	"/>
	<path class="st0" d="M8.64,28.33c0.06,0.74,0.78,1.09,1.6,1.09c0.6,0,1.09-0.08,1.57-0.24l0.23,1.2c-0.58,0.24-1.29,0.36-2.06,0.36
		c-1.93,0-3.03-1.11-3.03-2.9c0-1.44,0.91-3.03,2.87-3.03c1.84,0,2.53,1.43,2.53,2.83c0,0.3-0.03,0.57-0.06,0.71L8.64,28.33
		 M10.72,27.13c0-0.42-0.19-1.15-0.99-1.15c-0.75,0-1.06,0.69-1.1,1.15H10.72z"/>
	<path class="st0" d="M18.14,29.25c0,0.54,0.02,1.06,0.09,1.37h-1.59l-0.1-0.57H16.5c-0.37,0.45-0.95,0.7-1.63,0.7
		c-1.15,0-1.84-0.84-1.84-1.74c0-1.48,1.33-2.17,3.33-2.17v-0.07c0-0.3-0.16-0.73-1.03-0.73c-0.58,0-1.2,0.2-1.57,0.42l-0.33-1.13
		c0.4-0.22,1.17-0.51,2.21-0.51c1.89,0,2.49,1.12,2.49,2.45V29.25 M16.43,27.94c-0.93,0-1.65,0.22-1.65,0.89
		c0,0.45,0.3,0.67,0.7,0.67c0.43,0,0.8-0.29,0.92-0.65c0.02-0.09,0.03-0.2,0.03-0.3V27.94z"/>
	<path class="st0" d="M25.06,22.37v6.55c0,0.65,0.02,1.31,0.05,1.7h-1.57l-0.07-0.83h-0.03c-0.35,0.63-1.05,0.95-1.78,0.95
		c-1.35,0-2.43-1.15-2.43-2.92c-0.01-1.91,1.19-3.02,2.55-3.02c0.71,0,1.24,0.26,1.5,0.64h0.02v-3.08H25.06 M23.29,27.36
		c0-0.1,0-0.22-0.02-0.33c-0.1-0.48-0.49-0.86-1.03-0.86c-0.81,0-1.22,0.72-1.22,1.62c0,0.95,0.48,1.56,1.21,1.56
		c0.51,0,0.93-0.35,1.03-0.85c0.02-0.12,0.04-0.26,0.04-0.39V27.36z"/>
	<path class="st0" d="M27.35,24.2c-0.59,0-0.98-0.42-0.98-0.94c0-0.53,0.39-0.94,1-0.94c0.6,0,0.98,0.41,0.99,0.94
		c0,0.52-0.38,0.94-1,0.94H27.35 M28.24,30.62h-1.77v-5.68h1.77V30.62z"/>
	<path class="st0" d="M29.66,26.75c0-0.71-0.02-1.3-0.05-1.81h1.53l0.08,0.79h0.03c0.23-0.37,0.8-0.92,1.76-0.92
		c1.16,0,2.03,0.78,2.03,2.45v3.36h-1.77v-3.15c0-0.73-0.26-1.23-0.89-1.23c-0.49,0-0.78,0.34-0.91,0.66
		c-0.05,0.12-0.06,0.28-0.06,0.44v3.28h-1.77V26.75"/>
	<path class="st0" d="M41.85,29.8c0,1.09-0.22,1.99-0.87,2.56c-0.62,0.53-1.46,0.7-2.3,0.7c-0.76,0-1.53-0.15-2.05-0.43l0.35-1.35
		c0.36,0.21,0.98,0.43,1.65,0.43c0.84,0,1.48-0.44,1.48-1.5v-0.36h-0.02c-0.34,0.46-0.88,0.73-1.53,0.73
		c-1.41,0-2.41-1.14-2.41-2.77c0-1.84,1.17-3,2.58-3c0.78,0,1.27,0.34,1.56,0.8h0.02l0.06-0.67h1.53c-0.02,0.37-0.05,0.85-0.05,1.7
		V29.8 M40.08,27.25c0-0.1-0.01-0.22-0.03-0.32c-0.13-0.46-0.47-0.78-0.95-0.78c-0.65,0-1.16,0.58-1.16,1.62
		c0,0.85,0.42,1.51,1.15,1.51c0.47,0,0.83-0.3,0.94-0.71c0.05-0.14,0.06-0.33,0.06-0.48V27.25z"/>
	<rect x="45.76" y="22.79" class="st0" width="1.77" height="7.83"/>
	<path class="st0" d="M49,26.75c0-0.71-0.02-1.3-0.05-1.81h1.53l0.08,0.79h0.03c0.23-0.37,0.8-0.92,1.76-0.92
		c1.16,0,2.03,0.78,2.03,2.45v3.36h-1.77v-3.15c0-0.73-0.26-1.23-0.89-1.23c-0.49,0-0.78,0.34-0.91,0.66
		c-0.05,0.12-0.06,0.28-0.06,0.44v3.28H49V26.75"/>
	<path class="st0" d="M55.81,26.75c0-0.71-0.02-1.3-0.05-1.81h1.53l0.08,0.79h0.03c0.23-0.37,0.8-0.92,1.76-0.92
		c1.16,0,2.03,0.78,2.03,2.45v3.36h-1.77v-3.15c0-0.73-0.26-1.23-0.89-1.23c-0.49,0-0.78,0.34-0.91,0.66
		c-0.05,0.12-0.06,0.28-0.06,0.44v3.28h-1.77V26.75"/>
	<path class="st0" d="M65.23,30.75c-1.66,0-2.94-1.09-2.94-2.93c0-1.83,1.21-3.01,3.04-3.01c1.73,0,2.89,1.2,2.89,2.92
		c0,2.07-1.48,3.02-2.99,3.02H65.23 M65.27,29.49c0.7,0,1.13-0.69,1.13-1.71c0-0.84-0.33-1.7-1.13-1.7c-0.84,0-1.16,0.86-1.16,1.71
		c0,0.96,0.41,1.7,1.15,1.7H65.27z"/>
	<path class="st0" d="M70.64,24.94l0.77,2.64c0.14,0.48,0.23,0.93,0.33,1.38h0.04c0.09-0.46,0.19-0.89,0.31-1.38l0.73-2.64h1.86
		l-2.11,5.68h-1.77l-2.07-5.68H70.64"/>
	<path class="st0" d="M80.21,29.25c0,0.54,0.02,1.06,0.09,1.37h-1.59l-0.1-0.57h-0.03c-0.37,0.45-0.95,0.7-1.63,0.7
		c-1.15,0-1.84-0.84-1.84-1.74c0-1.48,1.32-2.17,3.33-2.17v-0.07c0-0.3-0.16-0.73-1.03-0.73c-0.58,0-1.2,0.2-1.57,0.42l-0.32-1.13
		c0.39-0.22,1.17-0.51,2.21-0.51c1.89,0,2.49,1.12,2.49,2.45V29.25 M78.5,27.94c-0.93,0-1.65,0.22-1.65,0.89
		c0,0.45,0.3,0.67,0.7,0.67c0.43,0,0.8-0.29,0.92-0.65c0.02-0.09,0.03-0.2,0.03-0.3V27.94z"/>
	<path class="st0" d="M83.59,23.4v1.55h1.27v1.3h-1.27v2.07c0,0.69,0.17,1,0.7,1c0.24,0,0.36-0.01,0.52-0.05l0.01,1.34
		c-0.22,0.08-0.65,0.15-1.14,0.15c-0.57,0-1.05-0.2-1.34-0.49c-0.32-0.34-0.49-0.88-0.49-1.68v-2.34h-0.76v-1.3h0.76v-1.07
		L83.59,23.4"/>
	<path class="st0" d="M86.76,24.2c-0.59,0-0.98-0.42-0.98-0.94c0-0.53,0.4-0.94,1-0.94c0.6,0,0.98,0.41,0.99,0.94
		c0,0.52-0.38,0.94-1,0.94H86.76 M87.65,30.62h-1.77v-5.68h1.77V30.62z"/>
	<path class="st0" d="M91.68,30.75c-1.66,0-2.94-1.09-2.94-2.93c0-1.83,1.21-3.01,3.04-3.01c1.73,0,2.89,1.2,2.89,2.92
		c0,2.07-1.48,3.02-2.99,3.02H91.68 M91.72,29.49c0.7,0,1.13-0.69,1.13-1.71c0-0.84-0.33-1.7-1.13-1.7c-0.84,0-1.16,0.86-1.16,1.71
		c0,0.96,0.41,1.7,1.15,1.7H91.72z"/>
	<path class="st0" d="M95.61,26.75c0-0.71-0.02-1.3-0.05-1.81h1.53l0.08,0.79h0.04c0.23-0.37,0.8-0.92,1.75-0.92
		c1.16,0,2.03,0.78,2.03,2.45v3.36h-1.77v-3.15c0-0.73-0.26-1.23-0.89-1.23c-0.49,0-0.78,0.34-0.91,0.66
		c-0.05,0.12-0.06,0.28-0.06,0.44v3.28h-1.77V26.75"/>
	<path class="st0" d="M96.68,15.92H101L96.54,1.21h-6.13l-4.46,14.71h4.32l0.79-2.72h4.83L96.68,15.92 M91.99,9.93l1.47-5.08h0.02
		l1.47,5.08H91.99z"/>
	<path class="st0" d="M22.56,16.18c4.43,0,6.58-0.78,6.88-4.78c0.07-0.95,0.09-1.93,0.09-2.84c0-0.9-0.01-1.88-0.09-2.84
		c-0.3-4-2.45-4.78-6.88-4.78c-4.44,0-6.58,0.78-6.88,4.78c-0.07,0.95-0.09,1.93-0.09,2.84c0,0.9,0.01,1.88,0.09,2.84
		C15.99,15.4,18.13,16.18,22.56,16.18 M19.77,8.56c0-0.81,0.02-1.29,0.04-1.64c0.11-2.27,1.01-2.54,2.75-2.54
		c1.74,0,2.64,0.27,2.75,2.54c0.02,0.35,0.04,0.83,0.04,1.64c0,0.81-0.02,1.29-0.04,1.64c-0.11,2.27-1.01,2.54-2.75,2.54
		c-1.74,0-2.64-0.27-2.75-2.54C19.79,9.85,19.77,9.37,19.77,8.56z"/>
	<polyline class="st1" points="1,1.21 1,4.88 5.4,4.88 5.4,15.92 9.79,15.92 9.79,4.88 14.19,4.88 14.19,1.21 1,1.21 	"/>
	<rect x="64.31" y="1.21" class="st0" width="4.17" height="14.71"/>
	<polyline class="st1" points="51.69,6.58 51.69,1.21 47.54,1.21 47.54,15.92 51.69,15.92 51.69,10.25 56.51,10.25 56.51,15.92 
		60.66,15.92 60.66,1.21 56.51,1.21 56.51,6.58 51.69,6.58 	"/>
	<path class="st0" d="M82.21,8.23c1.85-0.47,2.39-1.58,2.39-3.17c0-3.23-2.03-3.85-4.93-3.85h-7.49v14.71h7.87
		c3.62,0,4.84-1.56,4.84-3.96C84.89,10.29,84.5,8.81,82.21,8.23 M76.33,9.88h2.88c1.16,0,1.41,0.51,1.41,1.34
		c0,0.83-0.46,1.34-1.41,1.34h-2.88V9.88z M76.33,4.57h2.88c0.75,0,1.22,0.36,1.22,1.21c0,0.74-0.46,1.19-1.22,1.19h-2.88V4.57z"/>
	<path class="st0" d="M31.95,11.09h3.96c0,0.71,0.1,1.19,0.44,1.45c0.39,0.3,0.75,0.39,1.92,0.39c1.12,0,2.36,0,2.36-1.38
		c0-1.09-0.69-1.34-1.96-1.41c-3.15-0.17-4.29-0.26-5.47-1.13c-0.8-0.59-1.21-1.75-1.21-3.32c0-2.66,0.93-3.6,2.27-4.25
		c1.38-0.67,6.81-0.67,8.27,0c1.84,0.85,1.89,2.68,1.89,4.38h-3.95c-0.01-0.86-0.2-1.11-0.36-1.27c-0.41-0.36-0.99-0.44-1.84-0.44
		c-1.02,0-2.2,0.05-2.2,1.28c0,0.94,0.41,1.34,1.48,1.41c1.47,0.1,4.38,0.19,5.41,0.8c1.45,0.86,1.83,2.02,1.83,3.92
		c0,2.74-0.98,3.54-2.34,4.14c-1.57,0.69-6.83,0.69-8.54-0.05C31.99,14.78,31.95,13.12,31.95,11.09"/>
</g>
</svg>
