<?xml version="1.0" encoding="utf-8"?>
<!-- Generator: Adobe Illustrator 24.0.0, SVG Export Plug-In . SVG Version: 6.00 Build 0)  -->
<svg version="1.1" id="Capa_1" xmlns="http://www.w3.org/2000/svg" xmlns:xlink="http://www.w3.org/1999/xlink" x="0px" y="0px"
	 viewBox="0 0 380 207" style="enable-background:new 0 0 380 207;" xml:space="preserve">
<style type="text/css">
	.st0{fill:#231916;}
	.st1{fill-rule:evenodd;clip-rule:evenodd;fill:#231916;}
	.st2{fill:#B4B5B5;}
	.st3{fill:#888888;}
	.st4{fill:#E50013;}
	.st5{fill-rule:evenodd;clip-rule:evenodd;fill:#E50013;}
	.st6{fill:#FFFFFF;}
	.st7{fill-rule:evenodd;clip-rule:evenodd;}
	.st8{fill-rule:evenodd;clip-rule:evenodd;fill:#FFFFFF;}
</style>
<rect y="-2" class="st6" width="380" height="209"/>
<g>
	<polyline points="288.1,116.7 294.44,116.7 303.99,125.72 294.43,134.77 288.09,134.77 297.65,125.72 288.1,116.7 	"/>
	<polyline points="301.1,116.7 307.44,116.7 317,125.72 307.43,134.77 301.09,134.77 310.65,125.72 301.1,116.7 	"/>
	<polyline points="314.11,116.7 320.44,116.7 330,125.72 320.43,134.77 314.09,134.77 323.66,125.72 314.11,116.7 	"/>
	<polyline points="50.85,116.79 54.91,116.79 54.91,131.35 62.06,131.35 62.06,134.77 50.85,134.77 50.85,116.79 	"/>
	<path d="M67.52,129.51c0.13,1.71,1.79,2.51,3.68,2.51c1.39,0,2.51-0.19,3.6-0.56l0.53,2.75c-1.33,0.56-2.96,0.83-4.72,0.83
		c-4.43,0-6.96-2.56-6.96-6.67c0-3.31,2.08-6.96,6.59-6.96c4.21,0,5.81,3.28,5.81,6.51c0,0.7-0.08,1.31-0.13,1.63L67.52,129.51
		 M72.3,126.74c0-0.96-0.43-2.64-2.27-2.64c-1.73,0-2.43,1.57-2.54,2.64H72.3z"/>
	<path d="M89.34,131.62c0,1.23,0.05,2.43,0.21,3.15H85.9l-0.24-1.31h-0.08c-0.85,1.04-2.19,1.6-3.73,1.6c-2.64,0-4.21-1.92-4.21-4
		c0-3.39,3.04-4.99,7.65-4.99v-0.16c0-0.69-0.37-1.68-2.37-1.68c-1.34,0-2.75,0.45-3.6,0.96l-0.75-2.59
		c0.91-0.51,2.7-1.17,5.07-1.17c4.35,0,5.71,2.56,5.71,5.63V131.62 M85.42,128.61c-2.13,0-3.79,0.5-3.79,2.05
		c0,1.04,0.69,1.55,1.6,1.55c0.99,0,1.84-0.67,2.11-1.49c0.05-0.21,0.08-0.45,0.08-0.69V128.61z"/>
	<path d="M105.21,115.83v15.04c0,1.49,0.06,3.01,0.11,3.89h-3.6l-0.16-1.89h-0.08c-0.8,1.44-2.4,2.19-4.08,2.19
		c-3.09,0-5.57-2.64-5.57-6.7c-0.03-4.37,2.72-6.94,5.84-6.94c1.63,0,2.85,0.59,3.44,1.47h0.06v-7.07H105.21 M101.16,127.27
		c0-0.24,0-0.51-0.06-0.75c-0.24-1.09-1.12-1.97-2.37-1.97c-1.87,0-2.8,1.65-2.8,3.71c0,2.19,1.09,3.57,2.77,3.57
		c1.17,0,2.13-0.8,2.37-1.95c0.05-0.27,0.08-0.59,0.08-0.91V127.27z"/>
	<path d="M110.47,120.02c-1.36,0-2.24-0.96-2.24-2.16c0-1.23,0.9-2.16,2.29-2.16c1.39,0,2.24,0.93,2.27,2.16
		c0,1.2-0.88,2.16-2.29,2.16H110.47 M112.52,134.77h-4.06v-13.04h4.06V134.77z"/>
	<path d="M115.77,125.89c0-1.63-0.05-2.99-0.11-4.16h3.52l0.19,1.81h0.08c0.53-0.85,1.84-2.11,4.03-2.11c2.67,0,4.67,1.79,4.67,5.63
		v7.71h-4.05v-7.23c0-1.68-0.59-2.83-2.05-2.83c-1.12,0-1.79,0.77-2.08,1.52c-0.11,0.27-0.13,0.64-0.13,1.01v7.52h-4.05V125.89"/>
	<path d="M143.75,132.87c0,2.51-0.51,4.56-2,5.87c-1.41,1.23-3.36,1.6-5.28,1.6c-1.73,0-3.52-0.35-4.69-0.99l0.8-3.09
		c0.83,0.48,2.24,0.99,3.79,0.99c1.92,0,3.39-1.01,3.39-3.44v-0.83h-0.05c-0.77,1.07-2.03,1.68-3.52,1.68
		c-3.23,0-5.52-2.61-5.52-6.35c0-4.22,2.69-6.88,5.92-6.88c1.79,0,2.91,0.77,3.57,1.84h0.05l0.13-1.55h3.52
		c-0.05,0.85-0.11,1.95-0.11,3.9V132.87 M139.69,127.03c0-0.24-0.03-0.51-0.08-0.75c-0.29-1.07-1.07-1.79-2.19-1.79
		c-1.49,0-2.67,1.33-2.67,3.71c0,1.94,0.96,3.46,2.64,3.46c1.07,0,1.89-0.69,2.16-1.63c0.11-0.32,0.13-0.75,0.13-1.1V127.03z"/>
	<rect x="152.72" y="116.79" width="4.05" height="17.98"/>
	<path d="M160.16,125.89c0-1.63-0.05-2.99-0.11-4.16h3.52l0.19,1.81h0.08c0.54-0.85,1.84-2.11,4.03-2.11c2.67,0,4.67,1.79,4.67,5.63
		v7.71h-4.05v-7.23c0-1.68-0.59-2.83-2.05-2.83c-1.12,0-1.79,0.77-2.08,1.52c-0.11,0.27-0.13,0.64-0.13,1.01v7.52h-4.06V125.89"/>
	<path d="M175.79,125.89c0-1.63-0.05-2.99-0.11-4.16h3.52l0.19,1.81h0.08c0.54-0.85,1.84-2.11,4.03-2.11c2.67,0,4.67,1.79,4.67,5.63
		v7.71h-4.05v-7.23c0-1.68-0.59-2.83-2.05-2.83c-1.12,0-1.79,0.77-2.08,1.52c-0.11,0.27-0.13,0.64-0.13,1.01v7.52h-4.05V125.89"/>
	<path d="M197.42,135.06c-3.81,0-6.75-2.51-6.75-6.72c0-4.21,2.77-6.91,6.98-6.91c3.97,0,6.64,2.75,6.64,6.7
		c0,4.75-3.39,6.94-6.85,6.94H197.42 M197.5,132.15c1.6,0,2.59-1.57,2.59-3.92c0-1.92-0.75-3.89-2.59-3.89
		c-1.92,0-2.67,1.97-2.67,3.92c0,2.21,0.93,3.89,2.64,3.89H197.5z"/>
	<path d="M209.82,121.73l1.76,6.05c0.32,1.09,0.53,2.14,0.75,3.17h0.08c0.21-1.07,0.43-2.05,0.72-3.17l1.68-6.05h4.26l-4.85,13.04
		h-4.05l-4.75-13.04H209.82"/>
	<path d="M231.8,131.62c0,1.23,0.06,2.43,0.22,3.15h-3.65l-0.24-1.31h-0.08c-0.85,1.04-2.19,1.6-3.73,1.6c-2.64,0-4.21-1.92-4.21-4
		c0-3.39,3.04-4.99,7.65-4.99v-0.16c0-0.69-0.37-1.68-2.37-1.68c-1.34,0-2.75,0.45-3.6,0.96l-0.75-2.59
		c0.91-0.51,2.69-1.17,5.07-1.17c4.35,0,5.71,2.56,5.71,5.63V131.62 M227.88,128.61c-2.13,0-3.79,0.5-3.79,2.05
		c0,1.04,0.69,1.55,1.6,1.55c0.99,0,1.84-0.67,2.11-1.49c0.05-0.21,0.08-0.45,0.08-0.69V128.61z"/>
	<path d="M239.56,118.18v3.55h2.91v2.99h-2.91v4.75c0,1.57,0.4,2.29,1.6,2.29c0.56,0,0.83-0.03,1.2-0.11l0.03,3.07
		c-0.51,0.19-1.49,0.35-2.61,0.35c-1.31,0-2.4-0.45-3.07-1.12c-0.74-0.77-1.12-2.03-1.12-3.87v-5.36h-1.73v-2.99h1.73v-2.45
		L239.56,118.18"/>
	<path d="M246.82,120.02c-1.36,0-2.24-0.96-2.24-2.16c0-1.23,0.91-2.16,2.29-2.16c1.39,0,2.24,0.93,2.27,2.16
		c0,1.2-0.88,2.16-2.29,2.16H246.82 M248.87,134.77h-4.05v-13.04h4.05V134.77z"/>
	<path d="M258.12,135.06c-3.81,0-6.75-2.51-6.75-6.72c0-4.21,2.77-6.91,6.99-6.91c3.97,0,6.64,2.75,6.64,6.7
		c0,4.75-3.39,6.94-6.86,6.94H258.12 M258.2,132.15c1.6,0,2.59-1.57,2.59-3.92c0-1.92-0.75-3.89-2.59-3.89
		c-1.92,0-2.67,1.97-2.67,3.92c0,2.21,0.93,3.89,2.64,3.89H258.2z"/>
	<path d="M267.14,125.89c0-1.63-0.06-2.99-0.11-4.16h3.52l0.19,1.81h0.08c0.53-0.85,1.84-2.11,4.03-2.11c2.66,0,4.67,1.79,4.67,5.63
		v7.71h-4.05v-7.23c0-1.68-0.59-2.83-2.05-2.83c-1.12,0-1.79,0.77-2.08,1.52c-0.11,0.27-0.13,0.64-0.13,1.01v7.52h-4.05V125.89"/>
	<path d="M269.59,101.02h9.92l-10.23-33.75H255.2l-10.23,33.75h9.91l1.81-6.25h11.09L269.59,101.02 M258.84,87.27l3.37-11.66h0.06
		l3.37,11.66H258.84z"/>
	<path d="M99.49,101.63c10.18,0,15.1-1.79,15.79-10.98c0.17-2.19,0.2-4.43,0.2-6.51c0-2.08-0.03-4.32-0.2-6.51
		c-0.7-9.18-5.62-10.97-15.79-10.97c-10.18,0-15.1,1.79-15.79,10.97c-0.17,2.19-0.2,4.43-0.2,6.51c0,2.08,0.03,4.32,0.2,6.51
		C84.39,99.83,89.31,101.63,99.49,101.63 M93.09,84.14c0-1.86,0.05-2.95,0.09-3.76c0.26-5.21,2.32-5.82,6.32-5.82
		c4,0,6.06,0.61,6.32,5.82c0.04,0.81,0.09,1.91,0.09,3.76c0,1.86-0.05,2.95-0.09,3.77c-0.26,5.21-2.32,5.82-6.32,5.82
		c-4,0-6.06-0.61-6.32-5.82C93.13,87.09,93.09,86,93.09,84.14z"/>
	<polyline class="st7" points="50,67.26 50,75.68 60.09,75.68 60.09,101.02 70.18,101.02 70.18,75.68 80.27,75.68 80.27,67.26 
		50,67.26 	"/>
	<rect x="195.3" y="67.26" width="9.58" height="33.75"/>
	<polyline class="st7" points="166.34,79.59 166.34,67.26 156.81,67.26 156.81,101.02 166.34,101.02 166.34,88 177.4,88 
		177.4,101.02 186.93,101.02 186.93,67.26 177.4,67.26 177.4,79.59 166.34,79.59 	"/>
	<path d="M236.39,83.38c4.24-1.09,5.48-3.63,5.48-7.28c0-7.42-4.67-8.83-11.3-8.83h-17.2v33.75h18.05c8.31,0,11.1-3.58,11.1-9.08
		C242.53,88.1,241.65,84.71,236.39,83.38 M222.89,87.15h6.6c2.67,0,3.23,1.17,3.23,3.07c0,1.9-1.05,3.07-3.23,3.07h-6.6V87.15z
		 M222.89,74.98h6.6c1.73,0,2.8,0.82,2.8,2.78c0,1.69-1.06,2.73-2.8,2.73h-6.6V74.98z"/>
	<path d="M121.03,89.94h9.08c0.01,1.64,0.22,2.74,1.01,3.33c0.91,0.68,1.71,0.91,4.4,0.91c2.58,0,5.41,0,5.41-3.18
		c0-2.51-1.58-3.08-4.5-3.24c-7.23-0.39-9.85-0.59-12.55-2.59c-1.83-1.36-2.79-4.02-2.79-7.62c0-6.11,2.13-8.25,5.2-9.75
		c3.17-1.54,15.63-1.54,18.98,0c4.22,1.94,4.34,6.15,4.34,10.04h-9.06c-0.02-1.98-0.47-2.54-0.83-2.92
		c-0.94-0.83-2.28-1.01-4.21-1.01c-2.34,0-5.05,0.11-5.05,2.95c0,2.17,0.94,3.07,3.4,3.23c3.38,0.22,10.04,0.43,12.42,1.84
		c3.33,1.97,4.19,4.64,4.19,8.99c0,6.28-2.25,8.13-5.37,9.51c-3.61,1.59-15.67,1.59-19.6-0.12
		C121.12,98.4,121.03,94.59,121.03,89.94"/>
</g>
</svg>
